<?xml version="1.0" standalone="no"?>
<!DOCTYPE svg PUBLIC "-//W3C//DTD SVG 20010904//EN"
 "http://www.w3.org/TR/2001/REC-SVG-20010904/DTD/svg10.dtd">
<svg version="1.0" xmlns="http://www.w3.org/2000/svg"
 width="700.000000pt" height="700.000000pt" viewBox="0 0 700.000000 700.000000"
 preserveAspectRatio="xMidYMid meet">
<metadata>
Created by potrace 1.11, written by Peter Selinger 2001-2013
</metadata>
<g transform="translate(0.000000,700.000000) scale(0.100000,-0.100000)"
fill="#000000" stroke="none">
<path d="M4505 5577 c-62 -30 -119 -86 -146 -144 -21 -46 -51 -193 -40 -193
11 -1 -204 -111 -219 -112 -8 -1 -98 37 -200 84 -102 47 -219 99 -260 116 -75
30 -362 129 -397 137 -10 2 -52 12 -93 23 -67 18 -134 32 -210 47 -45 9 -154
23 -235 30 -56 5 -401 6 -455 1 -58 -6 -164 -18 -180 -21 -8 -1 -42 -6 -75 -9
-152 -17 -245 -42 -584 -162 -316 -111 -461 -180 -669 -321 -84 -57 -155 -103
-159 -103 -4 0 -45 41 -91 90 -91 98 -137 128 -206 135 -46 5 -130 -19 -186
-51 -76 -45 -65 -162 34 -364 35 -72 116 -212 159 -272 9 -14 9 -23 -2 -40
-144 -226 -185 -375 -185 -668 0 -150 7 -228 33 -380 38 -220 109 -461 211
-715 74 -184 92 -218 140 -260 240 -214 333 -425 332 -756 0 -113 13 -150 66
-175 49 -23 132 -21 277 6 28 5 68 12 90 14 22 3 60 8 85 12 61 8 358 12 450
5 100 -8 118 -4 134 27 14 27 15 199 1 268 -3 16 -8 76 -11 134 -3 58 -7 117
-9 132 -4 34 9 44 38 30 45 -21 184 -51 312 -68 28 -3 59 -8 70 -10 10 -2 49
-6 85 -10 36 -3 76 -7 90 -9 153 -23 524 -26 647 -6 46 7 85 13 88 13 12 -2
174 58 212 79 24 12 57 36 74 53 l31 30 29 -34 c30 -35 30 -35 24 -135 -3 -55
-7 -111 -9 -125 -7 -42 -19 -203 -17 -233 5 -100 104 -225 181 -228 82 -4 245
6 295 18 11 3 157 6 325 7 331 3 349 6 370 57 10 23 9 46 -3 111 -26 135 -28
154 -32 348 -5 214 3 276 41 304 14 10 51 43 82 73 111 106 96 106 467 -6 247
-75 287 -87 420 -122 244 -63 325 -72 452 -45 255 54 464 267 615 626 41 97
110 301 122 360 3 14 14 67 25 118 22 103 22 239 1 327 -6 28 -13 57 -15 65
-8 36 -56 153 -86 207 -84 152 -208 309 -299 375 -37 28 -115 53 -190 63 -25
3 -63 8 -84 11 -58 9 -120 13 -316 19 -282 9 -306 12 -396 54 -101 47 -217
179 -253 288 -13 39 -12 41 40 144 l54 104 0 95 c0 161 -55 275 -143 297 -84
21 -239 -17 -336 -82 -28 -19 -51 -33 -52 -32 -1 1 -4 36 -8 77 -4 52 -15 92
-36 135 -36 74 -43 83 -103 124 -66 45 -141 51 -212 18z"/>
</g>
</svg>
