<?xml version="1.0" encoding="utf-8"?>
<!-- Generator: Adobe Illustrator 23.0.1, SVG Export Plug-In . SVG Version: 6.00 Build 0)  -->
<svg version="1.1" id="Layer_1" xmlns="http://www.w3.org/2000/svg" xmlns:xlink="http://www.w3.org/1999/xlink" x="0px" y="0px"
	 viewBox="0 0 218.7 172.2" style="enable-background:new 0 0 218.7 172.2;" xml:space="preserve">
<style type="text/css">
	.st0{fill:#F0617D;}
	.st1{fill:#303C46;}
</style>
<title>free1</title>
<path class="st0" d="M187,1C133.5,19.2,81.3,40.7,30.5,65.5c-10.7,5.2-14.1,19.6-9.8,29.8c2,4.6,5.2,9,9.8,11.4
	c4.6,2.4,11.6,3.3,18.3,2.4c38.5-5.5,76.2-15.9,112.1-30.8c6-2.5,10.8-5.1,14.2-10.9s4.3-12.7,2.4-18.4
	c-3.6-11.2-16.9-21.5-29.3-16.6C100.4,51.3,56,76.9,11.9,103.1C3.1,108.3-2.3,120,0.9,130s12.4,18.4,23,17.5
	c53-4.7,107.4-9.3,157.2-29.7c11.1-4.5,18.8-13.4,17.1-26.1c-1.5-10.9-11.6-21.6-23.4-20.7C122.6,75.3,75.5,98.6,33,128.1
	c-9.9,6.8-14.6,18.3-9.8,29.7s16.3,16.1,28.1,13.8c50.7-9.9,100.7-23,149.7-39.1c11.8-3.8,20.7-16.6,16.6-29.3S201,82.5,188.3,86.6
	c-49,16.1-99,29.2-149.6,39.1L57,169.2c19.1-13.2,39-25.4,60.2-35l3.2-1.4c5.4-2.4-4.9,1.9,0.7-0.3l8-3.1c5.2-1.8,10.3-3.5,15.6-5
	s11.1-2.9,16.7-4l4.3-0.7c0.8-0.1,5.7-1,1.9-0.4s1.2-0.1,2-0.2l5.2-0.4l-6.4-46.8c-23.4,9.6-48.1,15.8-73.1,19.9l-9.1,1.5l-4.5,0.6
	c-6,0.9,3.4-0.4-0.1,0.1l-19.2,2.2c-12.8,1.4-25.7,2.5-38.5,3.7l12,44.3c20.9-12.4,41.8-24.8,63.2-36.4c10.4-5.6,20.9-11,31.6-16.2
	c5.6-2.7,11.2-5.3,16.9-7.8l3.5-1.5c5.5-2.4-3,1.2,0.3-0.1l9.5-3.9l-12.7-45.9c-35.9,14.9-73.5,25.2-112,30.7l18.3,43.6
	c11.9-5.9,24-11.5,36.1-17l19.1-8.4l4.4-1.8c2.3-1,3.3-1.5,0.4-0.2l9.6-4C149,65,174.2,55.6,199.7,46.9c11.7-4,20.7-16.5,16.6-29.2
	S199.6-3.3,187,1L187,1z"/>
<path class="st1" d="M72,159.2c0.4-0.7,0.7-1.4,1-2.1c0.9-2,1.6-4.1,2.2-6.2c0.8-3.3,1.3-6.6,1.4-10c0.1-4.4-0.2-8.7-0.9-13
	c-0.9-5.1-2.1-10-3.8-14.9c-0.8-2.6-1.9-5.2-3-7.9s-2.4-5.3-3.7-7.9s-2.9-5.3-4.5-7.9s-3.3-5.1-5.2-7.7s-3.7-5.4-5.5-8.3
	c-1.9-3-3.5-6.1-4.8-9.4c-0.7-1.7-1.2-3.5-1.6-5.3c-0.2-0.9-0.4-1.8-0.5-2.7v-2.7c0-1.8,0-3.7,0.2-5.5c0.2-1.8,0.5-3.6,0.9-5.3
	c1.6-6.9,5.3-13.1,10.4-18c2.5-2.3,5.4-4.1,8.5-5.3l2.4-0.8h0.6l0.5-0.2l1.1-0.2l2.2-0.5l2.3-0.4c2.9-0.4,5.9-0.5,8.8-0.2
	c7.6,1,14.4,5.1,18.9,11.3c2,2.9,3.7,6,5,9.3c0.9,2.1,1.6,4.2,2.2,6.4l0.6,2.3c0,0-0.3-0.8-1-2.2s-1.6-3.4-3-5.9
	c-1.6-3-3.6-5.7-5.9-8.2c-6.1-7-15.7-10-24.7-7.5l-1.9,0.4l-1.9,0.6l-1.1,0.3l-0.5,0.2h-0.4l-1.8,0.8c-2.4,1.1-4.5,2.7-6.3,4.6
	c-4.8,5.3-7.7,12.1-8.2,19.2c-0.1,1.4-0.1,2.9,0,4.3v1.2l0.2,1l0.3,2c0.4,1.4,0.8,2.8,1.3,4.2c1.1,2.8,2.5,5.4,4.1,8
	c1.7,2.7,3.5,5.3,5.3,8s3.6,5.5,5.2,8.3s3.1,5.8,4.5,8.6c2.5,5.5,4.6,11.3,6.1,17.2c0.7,2.8,1.3,5.6,1.8,8.3
	c0.4,2.6,0.7,5.3,0.8,7.9c0.2,2.4,0.2,4.9,0.1,7.3c-0.1,2.2-0.4,4.3-0.8,6.5c-0.6,3.5-1.6,6.9-3,10.2c-0.9,2.1-2,4.1-3.3,5.9
	L72,159.2z"/>
<path class="st1" d="M165.2,156.4l-0.4-0.3l-1.2-1.1c-1.5-1.3-2.8-2.8-4-4.4c-1.9-2.5-3.5-5.1-4.8-8c-1.7-3.8-2.8-7.9-3.2-12
	c-0.4-4.9-0.1-9.9,1-14.7c1.1-5.3,2.9-10.5,5.2-15.4c2.5-5.1,5.2-10.1,8.2-14.9l1.1-1.8l1.1-1.9l2-3.6c1.4-2.4,2.6-4.9,3.7-7.4
	c1.2-2.5,2.2-5.1,3.1-7.7c0.8-2.6,1.5-5.2,2.1-7.8c1-5.1,1.3-10.3,0.9-15.4c-0.5-4.7-2.1-9.2-4.7-13.1c-2.3-3.5-5.4-6.3-9.1-8.2
	c-3.2-1.5-6.7-2.2-10.2-2c-2.8,0.2-5.4,1-7.9,2.3c-1.6,0.9-3.1,1.9-4.5,3.1l-1.5,1.3l-2.2-2.1l1.5-1.6c1.4-1.5,3.1-2.8,4.8-4
	c2.8-1.8,5.9-3,9.2-3.5c4.4-0.7,8.9-0.1,13,1.5c4.8,2.1,8.9,5.4,12,9.6c3.4,4.6,5.7,10.1,6.5,15.8c0.9,5.9,0.9,11.9-0.2,17.8
	c-0.6,2.9-1.3,5.9-2.2,8.8c-0.9,2.9-2,5.7-3.3,8.4c-1.3,2.8-2.6,5.5-4,8l-2.3,3.9l-2.3,3.7c-1.5,2.4-3.1,4.7-4.5,7s-2.7,4.6-4,6.9
	c-2.3,4.4-4.3,9-5.8,13.8c-1.3,4.2-2,8.6-2.2,13c0,3.8,0.5,7.5,1.5,11.1c0.8,2.9,1.9,5.7,3.3,8.3c0.9,1.7,2,3.3,3.1,4.9L165.2,156.4
	z"/>
<path class="st1" d="M141,42.4l0.4-0.9c0.3-0.9,0.5-1.7,0.6-2.6c0.3-1.3,0.4-2.7,0.4-4c0.1-1.7,0-3.4-0.4-5.1
	c-0.3-1.9-0.9-3.8-1.7-5.5c-0.9-1.9-2.1-3.6-3.6-5.1c-1.5-1.6-3.4-3-5.4-3.9c-2.1-1.1-4.3-2-6.6-2.6l-1.8-0.4l-1.8-0.4h-3.4
	c-2.3-0.1-4.7,0-7,0.3c-2.2,0.3-4.3,0.8-6.4,1.5c-1.9,0.6-3.6,1.5-5.3,2.5c-1.4,0.9-2.7,2-3.9,3.2c-0.9,1-1.7,2-2.5,3.1l-0.8,1.3
	l-0.5,1l-0.5,0.9v-1c0.1-0.3,0.1-0.7,0.2-1.1c0.1-0.5,0.2-1.1,0.4-1.6c0.4-1.4,1-2.7,1.7-4c1-1.7,2.2-3.2,3.6-4.5
	c1.7-1.6,3.6-2.9,5.7-4c2.3-1.1,4.7-2,7.2-2.6c2.7-0.6,5.4-0.9,8.1-0.9c1.5,0,2.9,0.2,4.4,0.4l2,0.4l2.1,0.5
	c2.8,0.8,5.4,1.9,7.9,3.3c2.5,1.4,4.7,3.3,6.5,5.5c1.7,2.1,2.9,4.5,3.7,7c0.8,2.2,1.1,4.6,1,6.9c0,1.9-0.2,3.8-0.7,5.7
	c-0.4,1.4-0.9,2.7-1.6,4c-0.4,0.8-0.9,1.7-1.5,2.4L141,42.4z"/>
<path class="st1" d="M77.2,159.2l3.9,0.6l4.4,0.7l5.7,0.7l6.7,0.8l7.5,0.6l3.9,0.3l4,0.2h4.1c1.4,0.1,2.7,0.1,4.1,0l8.1-0.2l4-0.3
	l3.9-0.4l3.8-0.5l3.6-0.6l3.4-0.6l3.1-0.6l3-0.7l2.6-0.6l4.3-1.1l2.9-0.8l1-0.3l-0.8,0.7c-0.6,0.4-1.3,1.1-2.4,1.8
	c-1.2,0.9-2.5,1.7-3.8,2.5l-5.3,2.9l-3.1,1.4l-3.4,1.3l-3.7,1.1l-4,1c-2.8,0.7-5.6,1.2-8.4,1.5L126,171h-4.4c-2.9,0.1-5.8,0-8.7-0.3
	c-2.9-0.3-5.7-0.7-8.4-1.2c-2.7-0.4-5.3-1.1-7.7-1.7s-4.6-1.4-6.7-2.2c-3.3-1.2-6.5-2.7-9.5-4.4l-2.6-1.5L77.2,159.2z"/>
<path class="st1" d="M158.2,146.4l-0.8,0.3l-2.2,0.8l-3.3,1c-1.4,0.4-2.8,0.8-4.3,1.1l-5.1,1l-5.8,0.8c-2,0.3-4.1,0.4-6.2,0.6h-6.3
	l-6.4-0.2l-6.1-0.5l-5.6-0.8l-2.6-0.4l-2.5-0.5c-1.5-0.3-2.9-0.5-4.2-0.9l-3.2-0.8l-2.8-0.7l2.9,0.4l3.3,0.5l4.2,0.4l2.4,0.3h2.6
	l5.7,0.2h6l6.1-0.5c2-0.2,4.1-0.4,6.1-0.8c2-0.3,3.9-0.6,5.8-1.1l5.4-1.3l4.7-1.5l3.9-1.4l2.9-1.2l1.7-0.9l0.6-0.3L158.2,146.4z"/>
<path class="st1" d="M140.7,147.1c0,0-0.4-1-0.9-2.6s-0.6-2.1-0.9-3.3s-0.6-2.7-0.8-4.2s-0.5-3.1-0.6-4.9s-0.4-3.5-0.5-5.4
	s-0.2-3.9-0.2-5.8s0-4,0.1-6.1s0.2-4,0.4-5.9s0.4-3.9,0.6-5.8s0.5-3.7,0.9-5.4s0.3-1.6,0.5-2.4s0.4-1.6,0.5-2.3l0.6-2.1l0.6-1.8
	c0.2-1,0.6-2,1-3l1-2.6l-0.8,2.7c-0.3,1-0.6,2-0.8,3c-0.1,0.6-0.3,1.2-0.4,1.9s-0.3,1.3-0.4,2.1s-0.3,1.5-0.4,2.2l-0.3,2.5
	c-0.2,1.7-0.3,3.5-0.4,5.3s-0.2,3.8-0.2,5.7c0,1.9,0,4,0.1,5.9s0.2,4,0.4,5.9l0.6,5.7c0.3,1.8,0.5,3.5,0.9,5.2s0.6,3.2,1,4.6
	s0.7,2.7,1,3.8c0.3,0.9,0.6,1.8,0.9,2.7l1.1,2.5L140.7,147.1z"/>
<path class="st1" d="M121.6,151.1v-0.5c-0.1-0.4-0.2-0.9-0.3-1.3c-0.3-1.2-0.7-2.8-1-4.7l-0.6-3.2c-0.2-1.1-0.3-2.3-0.5-3.5
	s-0.3-2.5-0.4-3.8s-0.2-2.6-0.2-3.9c-0.1-1.3-0.2-2.7-0.1-4v-3.7c0.1-0.6,0.1-1.3,0.1-1.9c0.1-0.5,0.1-1.1,0.2-1.7
	c0-1,0.1-2.1,0.3-3.1c0.1-1,0.3-1.9,0.4-2.7s0.3-1.4,0.4-2l0.3-1.7c0,0,0,0.6-0.1,1.7s-0.1,1.3-0.2,2.1v2.6c-0.1,1,0,2,0,3.2
	s0.1,1.1,0.1,1.7s0.1,1.1,0.1,1.7s0.1,1.2,0.2,1.8c0,0.6,0.1,1.3,0.2,1.9c0.1,1.3,0.3,2.5,0.5,3.8s0.5,2.5,0.7,3.8l0.9,3.6
	c0.3,1.1,0.5,2.2,0.9,3.3s0.6,2,0.8,2.9s1.2,3.3,1.5,4.4l0.5,1.1l0.2,0.5L121.6,151.1z"/>
</svg>
