<?xml version="1.0" encoding="utf-8"?>
<!-- Generator: Adobe Illustrator 23.0.1, SVG Export Plug-In . SVG Version: 6.00 Build 0)  -->
<svg version="1.1" id="Layer_1" xmlns="http://www.w3.org/2000/svg" xmlns:xlink="http://www.w3.org/1999/xlink" x="0px" y="0px"
	 viewBox="0 0 200 200" style="enable-background:new 0 0 200 200;" xml:space="preserve">
<style type="text/css">
	.st0{fill:#F9665E;}
	.st1{fill:none;stroke:#F9665E;stroke-miterlimit:10;}
</style>
<path class="st0" d="M17.01,18.67c0.44,0.54,8.39-7.12,19.72-10.82s13.15-5.28,21.08-6.07c6.2-0.62,11.22-1.17,11.22-1.12
	c0.01,0.07-11.21,1.21-11.22,1.12c0-0.05,3.37-0.5,5.46-0.72c3.78-0.4,14-0.88,23.78,1.25c17,3.69,30.37,11.61,30.6,11.35
	c0.23-0.26,6.35-3.17,6.35-3.17c-0.02-0.53-0.11-5.65,3.33-8.65c0.87-0.76,3.12-2.38,5.9-1.8c1.84,0.39,3.03,1.56,3.47,2
	c3.07,3.1,2.94,8,2.91,8.8c1.87-1.55,3.6-2.32,4.8-2.74c1.51-0.52,6.2-2.14,8.52,0.59c0.33,0.39,0.49,0.72,0.81,1.39
	c0.22,0.46,2.04,4.45,0.85,8.75c0,0-0.2,0.73-2.93,5.63c0,0,2.72,10.82,13.6,10.82c10.88,0,17.91,0.79,21.08,2.11
	c3.17,1.32,15.41,14.51,12.69,27.97c-2.72,13.46-11.11,36.68-30.6,31.93c-19.49-4.75-25.39-8.18-27.43-6.6
	c-2.04,1.58-4.76,4.49-5.21,4.49c0,0-1.79,3.32,0.23,17.94c0.39,0.91,0.81,2.25,0.36,3.38c-1.09,2.75-6.19,1.28-15.07,1.57
	c-9.7,0.32-13.63,2.4-16.53-0.97c-1.34-1.56-1.79-3.5-2.08-4.78c0,0,1.13-12.93,1.13-12.93l-1.81-2.11c0,0-4.08,6.86-25.16,5.28
	s-21.76-4.22-21.76-3.43c0,2.48,0.06,4.99,0.43,7.43c0.59,3.86,0.47,7.53,0.47,7.61c0.01,0.13,0.05,0.95-0.49,1.59
	c-0.66,0.79-1.59,0.58-1.66,0.57c-7.63-0.73-13.68-0.21-17.85,0.42c-5.35,0.81-9.46,2.07-11.29-0.47c-1.32-1.83,0.02-3.61-0.81-9.14
	c-0.25-1.7-0.91-5.85-3.28-9.74c-2.74-4.5-7.25-7.77-7.25-7.77c0,0-19.27-38.26-4.08-57.26c0,0-11.56-16.36-5.67-19
	S11.11,11.54,17.01,18.67z"/>
<path class="st1" d="M49.88,109.86"/>
<path class="st1" d="M59.23,110.2"/>
<path class="st0" d="M34.82,134.48v64.84h-7.01v-29.97H6.77v29.97h-7.01v-64.84h7.01v29.87h21.03v-29.87H34.82z"/>
<path class="st0" d="M50.18,199.32v-64.84h7.01v64.84H50.18z"/>
<path class="st0" d="M79.57,171.08v28.24h-7.01v-64.84h15.5c10.38,0,18.88,6.05,18.88,13.45v9.7c0,7.4-8.49,13.45-18.88,13.45H79.57
	z M88.06,166.08c6.61,0,11.86-3.75,11.86-8.45v-9.7c0-4.71-5.26-8.45-11.86-8.45h-8.49v26.61H88.06z"/>
<path class="st0" d="M125.81,171.08v28.24h-7.01v-64.84h15.51c10.38,0,18.88,6.05,18.88,13.45v9.7c0,7.4-8.49,13.45-18.88,13.45
	H125.81z M134.3,166.08c6.6,0,11.86-3.75,11.86-8.45v-9.7c0-4.71-5.26-8.45-11.86-8.45h-8.49v26.61H134.3z"/>
<path class="st0" d="M164.36,146.01c0-6.92,7.82-12.49,17.53-12.49c9.71,0,17.53,5.57,17.53,12.49v41.78
	c0,6.92-7.82,12.49-17.53,12.49c-9.71,0-17.53-5.57-17.53-12.49V146.01z M171.37,187.79c0,4.13,4.72,7.49,10.52,7.49
	c5.8,0,10.52-3.36,10.52-7.49v-41.78c0-4.13-4.72-7.49-10.52-7.49c-5.8,0-10.52,3.36-10.52,7.49V187.79z"/>
</svg>
