<?xml version="1.0" encoding="utf-8"?>
<!-- Generator: Adobe Illustrator 23.0.1, SVG Export Plug-In . SVG Version: 6.00 Build 0)  -->
<svg version="1.1" id="Layer_1" xmlns="http://www.w3.org/2000/svg" xmlns:xlink="http://www.w3.org/1999/xlink" x="0px" y="0px"
	 viewBox="0 0 200 200" style="enable-background:new 0 0 200 200;" xml:space="preserve">
<style type="text/css">
	.st0{fill:url(#SVGID_1_);}
</style>
<linearGradient id="SVGID_1_" gradientUnits="userSpaceOnUse" x1="1.3806" y1="102.508" x2="198.8407" y2="102.508" gradientTransform="matrix(1 0 0 -1 0 202)">
	<stop  offset="0" style="stop-color:#FF416C"/>
	<stop  offset="0.288" style="stop-color:#FC5166"/>
	<stop  offset="0.6854" style="stop-color:#FA6160"/>
	<stop  offset="1" style="stop-color:#F9665E"/>
</linearGradient>
<path class="st0" d="M16.45,58.7c0.4,0.5,8.4-7.1,19.7-10.8c11.3-3.7,13.1-5.3,21.1-6.1c6.2-0.6,11.2-1.2,11.2-1.1
	c0,0.1-11.2,1.2-11.2,1.1c0,0,3.4-0.5,5.5-0.7c3.7-0.4,14-0.9,23.7,1.2c17,3.7,30.4,11.6,30.6,11.4c0.2-0.3,6.3-3.2,6.3-3.2
	c0-0.5-0.1-5.7,3.3-8.6c0.9-0.8,3.1-2.4,5.9-1.8c1.8,0.4,3,1.6,3.5,2c3.1,3.1,2.9,8,2.9,8.8c1.9-1.6,3.6-2.3,4.8-2.7
	c1.5-0.5,6.2-2.1,8.5,0.6c0.3,0.4,0.5,0.7,0.8,1.4c0.2,0.5,2,4.4,0.9,8.8c0,0-0.2,0.7-2.9,5.6c0,0,2.7,10.8,13.6,10.8
	s17.9,0.8,21.1,2.1s15.4,14.5,12.7,28s-11.1,36.7-30.6,31.9c-19.5-4.8-25.4-8.3-27.4-6.7s-4.8,4.5-5.2,4.5c0,0-1.8,3.3,0.2,17.9
	c0.4,0.9,0.8,2.2,0.4,3.4c-1.1,2.8-6.2,1.3-15.1,1.6c-9.7,0.3-13.6,2.4-16.5-1c-1.3-1.6-1.8-3.5-2.1-4.8l1.1-12.9l-1.8-2.1
	c0,0-4.1,6.9-25.2,5.3c-21.1-1.6-21.8-4.2-21.8-3.4c0,2.5,0.1,5,0.4,7.4c0.6,3.9,0.5,7.5,0.5,7.6s0,0.9-0.5,1.6
	c-0.7,0.8-1.6,0.6-1.7,0.6c-7.6-0.7-13.7-0.2-17.8,0.4c-5.4,0.8-9.5,2.1-11.3-0.5c-1.3-1.8,0-3.6-0.8-9.1c-0.2-1.7-0.9-5.8-3.3-9.7
	c-2.7-4.5-7.2-7.8-7.2-7.8s-19.2-38.3-4-57.3c0,0-11.6-16.4-5.7-19S10.55,51.5,16.45,58.7z"/>
</svg>
