<?xml version="1.0" encoding="utf-8"?>
<!-- Generator: Adobe Illustrator 23.0.1, SVG Export Plug-In . SVG Version: 6.00 Build 0)  -->
<svg version="1.1" id="Layer_1" xmlns="http://www.w3.org/2000/svg" xmlns:xlink="http://www.w3.org/1999/xlink" x="0px" y="0px"
	 viewBox="0 0 218.7 174.5" style="enable-background:new 0 0 218.7 174.5;" xml:space="preserve">
<style type="text/css">
	.st0{fill:url(#SVGID_1_);}
	.st1{fill:#303C46;}
</style>
<title>mc</title>
<linearGradient id="SVGID_1_" gradientUnits="userSpaceOnUse" x1="4.8375" y1="86.0115" x2="218.5365" y2="86.0115">
	<stop  offset="0" style="stop-color:#F0617D"/>
	<stop  offset="0.8808" style="stop-color:#FC4C6C"/>
	<stop  offset="1" style="stop-color:#FE4969"/>
</linearGradient>
<path class="st0" d="M187,1C133.5,19.2,81.3,40.7,30.5,65.5c-10.7,5.2-14.1,19.6-9.8,29.8c2,4.6,5.2,9,9.8,11.4s11.6,3.3,18.3,2.4
	c38.5-5.5,76.2-15.9,112.1-30.8c6-2.5,10.8-5.1,14.2-10.9s4.3-12.7,2.4-18.4c-3.6-11.2-16.9-21.5-29.3-16.6
	C100.4,51.3,56,76.9,11.9,103.1C3.1,108.3-2.3,120,0.9,130s12.4,18.4,23,17.5c53-4.7,107.4-9.3,157.2-29.7
	c11.1-4.5,18.8-13.4,17.1-26.1c-1.5-10.9-11.6-21.6-23.4-20.7C122.6,75.3,75.5,98.6,33,128.1c-9.9,6.8-14.6,18.3-9.8,29.7
	s16.3,16.1,28.1,13.8c50.7-9.9,100.7-23,149.7-39.1c11.8-3.8,20.7-16.6,16.6-29.3S201,82.5,188.3,86.6c-49,16.1-99,29.2-149.6,39.1
	L57,169.2c19.1-13.2,39-25.4,60.2-35l3.2-1.4c5.4-2.4-4.9,1.9,0.7-0.3l8-3.1c5.2-1.8,10.3-3.5,15.6-5s11.1-2.9,16.7-4l4.3-0.7
	c0.8-0.1,5.7-1,1.9-0.4s1.2-0.1,2-0.2l5.2-0.4l-6.4-46.8c-23.4,9.6-48.1,15.8-73.1,19.9l-9.1,1.5l-4.5,0.6c-6,0.9,3.4-0.4-0.1,0.1
	l-19.2,2.2c-12.8,1.4-25.7,2.5-38.5,3.7l12,44.3c20.9-12.4,41.8-24.8,63.2-36.4c10.4-5.6,20.9-11,31.6-16.2
	c5.6-2.7,11.2-5.3,16.9-7.8l3.5-1.5c5.5-2.4-3,1.2,0.3-0.1l9.5-3.9l-12.7-45.9c-35.9,14.9-73.5,25.2-112,30.7l18.3,43.6
	c11.9-5.9,24-11.5,36.1-17l19.1-8.4l4.4-1.8c2.3-1,3.3-1.5,0.4-0.2l9.6-4C149,65,174.2,55.6,199.7,46.9c11.7-4,20.7-16.5,16.6-29.2
	S199.6-3.3,187,1L187,1z"/>
<path class="st1" d="M62.2,164.4c0.2-2.7,0.5-5.4,0.7-8s0.3-5.4,0.5-8.1s0.3-5.3,0.3-8s0.2-5.3,0.3-8v-8c0.1-2.6,0-5.3,0-7.9l-0.3-8
	c-0.1-2.7-0.2-5.3-0.4-7.9s-0.3-5.3-0.5-8s-0.5-5.2-0.8-7.8s-0.7-5.3-1-7.9s-0.8-5.2-1.3-7.8s-0.9-5.1-1.5-7.7s-0.5-2.6-0.8-3.9
	l-0.9-3.8l-1-3.8L54.4,46c-0.6-2.5-1.5-4.9-2.3-7.4l-2.6-8.5l8.2,2.8l6.2,1.9l6.4,1.7l6.4,1.5l6.5,1.4l6.5,1.3l6.5,1
	c2.2,0.4,4.3,0.7,6.5,0.9L106,43l3.3,0.3l6.6,0.6l6.6,0.3h16.6l3.3-0.3l3.3-0.3l3.3-0.4l3.3-0.5l3.3-0.6c2.2-0.3,4.4-0.9,6.6-1.3
	c-2,0.9-4.1,1.8-6.2,2.5s-4.3,1.5-6.5,2.1l-6.6,1.7l-3.4,0.7l-3.3,0.6c-2.3,0.4-4.5,0.7-6.8,0.9l-3.4,0.4l-3.4,0.2l-6.8,0.3h-6.9
	l-6.8-0.2l-6.8-0.5l-6.8-0.8l-6.8-1c-2.3-0.3-4.5-0.7-6.7-1.2l-6.7-1.4l-6.7-1.6c-2.2-0.6-4.4-1.2-6.7-2l5.6-5.7
	c0.9,2.7,1.8,5.3,2.6,7.9s0.7,2.7,1.1,4l1,4l0.9,4l0.9,4c0.5,2.7,0.9,5.4,1.3,8.1s0.8,5.4,1.1,8.1s0.6,5.5,0.7,8.2s0.4,5.4,0.5,8.2
	s0.2,5.4,0.1,8.1s0,5.5-0.1,8.2s-0.2,5.4-0.4,8.1s-0.4,5.4-0.7,8.1s-0.5,5.4-0.9,8.1s-0.7,5.3-1.2,8s-0.8,5.3-1.4,8
	s-1.1,5.3-1.7,7.9S63,161.8,62.2,164.4z"/>
<path class="st1" d="M56.3,26.4c0.9-0.9,1.9-1.6,3-2.2l3.4-1.7c2.3-1,4.6-1.9,6.9-2.7c2.3-0.9,4.6-1.7,7-2.3l7.2-2l7.3-1.6l7.4-1.2
	l3.7-0.5l3.7-0.5l7.5-0.5c2.5-0.2,5-0.2,7.5-0.2h3.8l3.8,0.2l3.7,0.2l3.8,0.4l3.8,0.4l3.7,0.6l3.8,0.8l1.8,0.4l1.9,0.4
	c2.5,0.6,4.9,1.4,7.4,2.1l7.2,2.7c2.4,0.9,4.7,2.1,7,3.2l3,1.5l-0.7,3.5c-0.6,2.6-1.1,5.3-1.6,8s-1,5.4-1.4,8.2l-1.2,8.1
	c-0.3,2.8-0.7,5.5-1,8.2s-0.5,5.5-0.8,8.3l-0.6,8.2c-0.1,2.8-0.3,5.5-0.4,8.3s-0.1,2.7-0.1,4.1s-0.1,2.8-0.1,4.1v8.3
	c0,1.4,0.1,2.8,0.1,4.1s0.1,2.8,0.2,4.2l0.2,4.1l0.3,4.1c0.1,1.4,0.3,2.8,0.4,4.1s0.3,2.8,0.5,4.2l0.6,4.1l0.6,4.1l0.4,2l0.4,2
	l0.8,4.1c0.6,2.7,1.2,5.4,2,8.1s1.6,5.4,2.4,8.1c-1.3-2.5-2.6-5-3.7-7.6s-2.2-5.2-3.2-7.8l-1.4-4.1l-0.6-2l-0.6-2
	c-0.9-2.7-1.6-5.4-2.2-8.2c-0.4-1.4-0.6-2.8-0.9-4.2s-0.6-2.8-0.8-4.2l-0.7-4.2l-0.7-4.2c-0.2-1.4-0.3-2.8-0.5-4.2s-0.3-2.8-0.4-4.2
	l-0.3-4.3l-0.3-4.2l-0.3-8.5c0-2.8,0-5.7,0.1-8.5c0.1-5.7,0.4-11.3,0.9-17c0.2-2.8,0.5-5.6,0.8-8.5s0.7-5.6,1.1-8.4s0.9-5.6,1.4-8.4
	s1.1-5.5,1.8-8.4l2.2,5c-2-1.1-4.1-2.1-6.3-3c-2.1-1-4.3-1.8-6.5-2.6l-3.4-1.1l-3.4-1l-1.7-0.5l-1.7-0.4l-3.4-0.8l-3.5-0.7l-3.5-0.6
	l-3.6-0.5l-3.5-0.4l-3.6-0.3l-3.6-0.3l-7.2-0.2H99.1l-7.3,0.6L88.2,19l-3.6,0.4c-2.4,0.3-4.8,0.6-7.2,1.1l-7.2,1.3l-7.1,1.7
	l-3.5,1.1C58.4,25.1,57.3,25.7,56.3,26.4z"/>
<path class="st1" d="M173,162.4c0,0-1.4,0.9-4,2.2s-2.9,1.4-4.8,2.1c-2.1,0.9-4.2,1.6-6.4,2.3l-3.8,1.1l-4,1.1l-4.4,0.9l-4.5,0.8
	c-3.1,0.5-6.3,0.8-9.6,1.1s-6.6,0.3-10,0.5l-9.9-0.4l-9.6-0.9l-8.9-1.6c-1.4-0.2-2.8-0.6-4.1-0.9l-3.8-1c-2.2-0.5-4.4-1.2-6.5-1.9
	l-4.9-1.8c-1.1-0.3-2.2-0.7-3.2-1.2l-1.1-0.4h1.2l3.4,0.4l5.1,0.7l6.7,0.7l3.8,0.4c1.3,0.2,2.7,0.4,4,0.4l8.8,0.8l9.3,0.4l9.7,0.2
	h4.8c1.6-0.1,3.3,0,4.8-0.2c3.2-0.2,6.3-0.3,9.4-0.6l4.4-0.4l4.3-0.4l4-0.6l3.8-0.5l6.5-1.2l5.1-1l3.3-0.8L173,162.4z"/>
<path class="st1" d="M67.5,141.7l0.2,0.2l0.7,0.3l2.6,1.3l4.2,1.7l2.6,1.1l3,1l3.3,1l3.5,1c2.5,0.6,5,1.3,7.8,1.8l4.1,0.7l4.3,0.6
	l2.1,0.3l2.2,0.2l4.5,0.4h8.8l8.6-0.2l8-0.8l1.9-0.2l1.8-0.3l3.4-0.6l6-1.1l4.6-1.2l4-0.9l-3.9,1.2l-4.5,1.4c-1.8,0.6-3.8,1-6,1.5
	l-3.4,0.8l-1.8,0.4l-1.9,0.3c-2.5,0.5-5.2,1-8,1.3s-5.7,0.7-8.7,0.9L117,156h-13.6l-4.4-0.4l-4.3-0.5c-2.8-0.3-5.5-0.9-8.1-1.3
	l-3.8-0.8l-3.4-0.9l-3.2-0.8l-2.9-0.9l-4.6-1.6l-2.9-1.3l-1.1-0.4L67.5,141.7z"/>
<path class="st1" d="M77.4,149.2c0.1-0.3,0.2-0.6,0.2-0.9l0.5-2.6c0.5-2.2,1-5.5,1.7-9.4c0.3-2,0.6-4.1,0.9-6.4s0.3-2.3,0.5-3.5
	s0.3-2.4,0.4-3.6s0.5-5,0.8-7.6s0.4-5.3,0.5-7.9s0.3-5.3,0.3-8s0.1-5.1,0-7.6s0-2.5-0.1-3.7c0-1.2,0-2.3-0.2-3.5
	c-0.1-2.1-0.2-4.3-0.5-6.4c-0.2-2-0.4-3.8-0.7-5.5c-0.2-1.4-0.4-2.7-0.7-4.1c-0.4-2.3-0.7-3.6-0.7-3.6l1,3.5c0.2,1.2,0.7,2.5,1,4.1
	s0.7,3.5,1.1,5.4s0.6,4.2,0.9,6.4s0.3,2.4,0.5,3.6l0.3,3.7c0.3,2.5,0.4,5.1,0.6,7.7s0.1,5.3,0.2,8s0.1,5.4,0,8.1s-0.1,5.2-0.2,7.7
	s-0.1,2.5-0.2,3.7s-0.1,2.4-0.2,3.6s-0.3,4.5-0.5,6.5c-0.4,4-0.7,7.4-1,9.7s-0.3,2.1-0.4,2.8v0.9L77.4,149.2z"/>
<path class="st1" d="M151.3,150.5l-0.2-0.9c-0.3-0.9-0.5-1.8-0.6-2.7c-0.5-2.3-1.1-5.7-1.8-9.7s-1.3-8.6-2-13.6
	c-0.3-2.5-0.6-5.1-0.9-7.8c-0.3-2.6-0.5-5.3-0.7-8s-0.5-5.3-0.6-8s-0.2-5.2-0.2-7.8s-0.1-4.9-0.1-7.2s0.1-4.5,0.2-6.5
	s0.3-3.9,0.4-5.5s0.3-3.1,0.4-4.2s0.4-3.7,0.4-3.7s-0.1,1.3-0.2,3.7s-0.1,2.6-0.1,4.2s0,3.5,0.1,5.5s0.1,4.1,0.2,6.4
	s0.4,4.7,0.6,7.2s0.5,5.1,0.8,7.7s0.7,5.2,1,7.9c0.3,2.7,0.9,5.2,1.3,7.8s0.9,5.2,1.5,7.6c0.9,4.9,2,9.4,2.9,13.3s1.8,7.1,2.4,9.4
	s0.5,1.9,0.7,2.5l0.3,0.9L151.3,150.5z"/>
<path class="st1" d="M94.2,151.7c0,0,0.1-0.9,0.4-2.4s0.7-3.7,1.1-6.3s0.8-5.6,1.3-8.9s0.8-6.8,1.2-10.4s0.6-7,0.8-10.3
	c0.1-1.7,0.2-3.3,0.3-4.8c0-1.5,0.1-3,0.1-4.3s0.1-2.6,0.1-3.7v-5.2l0.3,2.4l0.3,2.8c0.1,1.1,0.2,2.3,0.3,3.7s0.2,2.7,0.3,4.3
	c0.1,1.6,0.2,3.1,0.2,4.8c0.2,3.3,0.2,6.9,0.3,10.5s-0.1,7.1-0.1,10.5s-0.2,6.5-0.4,9.2s-0.3,4.9-0.4,6.4s-0.2,2.5-0.2,2.5
	L94.2,151.7z"/>
<path class="st1" d="M133.5,153.4c0,0-0.3-4.4-0.6-11.1s-0.8-15.5-1-24.4s-0.3-17.8-0.2-24.4c0-1.7,0.1-3.2,0.1-4.6s0.1-2.5,0.2-3.5
	s0.2-3,0.2-3s0,1.1,0.1,3s0,2.2,0.1,3.5s0.1,2.9,0.2,4.6c0.5,6.6,1.3,15.4,2.3,24.2s2.1,17.6,3,24.2s1.6,10.9,1.6,10.9L133.5,153.4z
	"/>
<path class="st1" d="M113.5,154.6c0,0,0.6-4.3,1.3-10.8c0.3-3.3,0.7-7.1,1-11.2s0.7-8.4,0.9-12.8c0.2-2.1,0.3-4.3,0.4-6.5
	s0.1-4.2,0.1-6.3s0.1-4,0.1-5.9s-0.1-3.6-0.1-5.3s-0.1-3.1-0.2-4.5s-0.2-2.4-0.2-3.4l-0.3-3l0.5,3c0.2,0.9,0.4,2.1,0.6,3.4
	s0.3,2.8,0.5,4.5s0.4,3.4,0.6,5.2s0.3,3.9,0.4,6s0.3,4.2,0.4,6.3s0.2,4.4,0.2,6.6c0.2,4.4,0.2,8.8,0.2,12.9s0,8-0.1,11.3
	c-0.1,6.6-0.3,11-0.3,11L113.5,154.6z"/>
</svg>
