<svg xmlns="http://www.w3.org/2000/svg" viewBox="0 0 337.1 101.3"><defs><style>.a,.b{fill:none;stroke-miterlimit:10;}.a{stroke:#2f2d2e;stroke-width:2px;}.b{stroke:#f9665e;}.c,.e{font-size:50px;font-family:LilitaOne, Lilita One;}.c{fill:#2f2d2e;}.d{letter-spacing:0.06em;}.e{fill:#f0617d;}</style></defs><title>new-logo</title><path class="a" d="M132.6,16.2c.2.2,3.6-2.8,8.5-4.2s5.6-2,9-2.3,4.9-.5,4.9-.4l-4.9.4,2.4-.3a43.5,43.5,0,0,1,10.2.5,67.7,67.7,0,0,1,13.2,4.3l2.7-1.2A4.1,4.1,0,0,1,180,9.7a3.4,3.4,0,0,1,2.5-.7,3.3,3.3,0,0,1,1.5.8,4.4,4.4,0,0,1,1.3,3.4,8.3,8.3,0,0,1,2-1.1c.7-.2,2.7-.8,3.7.2l.4.6a5.5,5.5,0,0,1,.3,3.3,21.3,21.3,0,0,1-1.2,2.2,5.9,5.9,0,0,0,5.8,4.1c4.7,0,7.7.3,9.1.8s6.6,5.6,5.4,10.8-4.8,14-13.1,12.2-10.9-3.1-11.8-2.5-2.1,1.7-2.3,1.7-.7,1.3.1,6.9a1.4,1.4,0,0,1,.2,1.3c-.5,1-2.7.5-6.5.6s-5.8.9-7.1-.4a4.3,4.3,0,0,1-.9-1.8l.5-5-.8-.8s-1.7,2.6-10.8,2S149,46.7,149,47a14.2,14.2,0,0,0,.2,2.9,24.8,24.8,0,0,1,.2,2.9,1,1,0,0,1-.2.6.9.9,0,0,1-.8.2,29.8,29.8,0,0,0-7.6.2c-2.3.3-4.1.8-4.9-.2s0-1.4-.3-3.5a9.1,9.1,0,0,0-1.4-3.7,11.5,11.5,0,0,0-3.2-3s-8.2-14.7-1.7-22c0,0-5-6.2-2.4-7.3S130.1,13.4,132.6,16.2Z" transform="translate(0 -8)"/><path class="b" d="M173.6,101.6" transform="translate(0 -8)"/><path class="b" d="M185.8,102" transform="translate(0 -8)"/><text class="c" transform="translate(0 90.3)">HUNGR<tspan class="d" x="156.5" y="0">Y</tspan></text><text class="e" transform="translate(189.4 90.3)">HIPPO</text></svg>