<?xml version="1.0" encoding="utf-8"?>
<!-- Generator: Adobe Illustrator 23.0.1, SVG Export Plug-In . SVG Version: 6.00 Build 0)  -->
<svg version="1.1" id="Layer_1" xmlns="http://www.w3.org/2000/svg" xmlns:xlink="http://www.w3.org/1999/xlink" x="0px" y="0px"
	 viewBox="0 0 200 200" style="enable-background:new 0 0 200 200;" xml:space="preserve">
<style type="text/css">
	.st0{fill:url(#SVGID_1_);}
	.st1{fill:url(#SVGID_2_);}
	.st2{fill:url(#SVGID_3_);}
	.st3{fill:url(#SVGID_4_);}
	.st4{fill:url(#SVGID_5_);}
	.st5{fill:url(#SVGID_6_);}
</style>
<linearGradient id="SVGID_1_" gradientUnits="userSpaceOnUse" x1="1.3806" y1="136.7672" x2="198.8407" y2="136.7672" gradientTransform="matrix(1 0 0 -1 0 202)">
	<stop  offset="0" style="stop-color:#FFFFFF"/>
	<stop  offset="0.288" style="stop-color:#FFFFFF"/>
	<stop  offset="0.6854" style="stop-color:#FFFFFF"/>
	<stop  offset="1" style="stop-color:#FFFFFF"/>
</linearGradient>
<path class="st0" d="M16.5,24.4c0.4,0.5,8.4-7.1,19.7-10.8s13.1-5.3,21.1-6.1c6.2-0.6,11.2-1.2,11.2-1.1c0,0.1-11.2,1.2-11.2,1.1
	c0,0,3.4-0.5,5.5-0.7c3.7-0.4,14-0.9,23.7,1.2c17,3.7,30.4,11.6,30.6,11.4c0.2-0.3,6.3-3.2,6.3-3.2c0-0.5-0.1-5.7,3.3-8.6
	c0.9-0.8,3.1-2.4,5.9-1.8c1.8,0.4,3,1.6,3.5,2c3.1,3.1,2.9,8,2.9,8.8c1.9-1.6,3.6-2.3,4.8-2.7c1.5-0.5,6.2-2.1,8.5,0.6
	c0.3,0.4,0.5,0.7,0.8,1.4c0.2,0.5,2,4.4,0.9,8.8c0,0-0.2,0.7-2.9,5.6c0,0,2.7,10.8,13.6,10.8s17.9,0.8,21.1,2.1s15.4,14.5,12.7,28
	s-11.1,36.7-30.6,31.9s-25.4-8.3-27.4-6.7s-4.8,4.5-5.2,4.5c0,0-1.8,3.3,0.2,17.9c0.4,0.9,0.8,2.2,0.4,3.4
	c-1.1,2.8-6.2,1.3-15.1,1.6c-9.7,0.3-13.6,2.4-16.5-1c-1.3-1.6-1.8-3.5-2.1-4.8l1.1-12.9l-1.8-2.1c0,0-4.1,6.9-25.2,5.3
	s-21.8-4.2-21.8-3.4c0,2.5,0.1,5,0.4,7.4c0.6,3.9,0.5,7.5,0.5,7.6s0,0.9-0.5,1.6c-0.7,0.8-1.6,0.6-1.7,0.6
	c-7.6-0.7-13.7-0.2-17.8,0.4c-5.4,0.8-9.5,2.1-11.3-0.5c-1.3-1.8,0-3.6-0.8-9.1c-0.2-1.7-0.9-5.8-3.3-9.7c-2.7-4.5-7.2-7.8-7.2-7.8
	s-19.2-38.3-4-57.3c0,0-11.6-16.4-5.7-19S10.6,17.2,16.5,24.4z"/>
<linearGradient id="SVGID_2_" gradientUnits="userSpaceOnUse" x1="-8.518513e-03" y1="34.9704" x2="35.0515" y2="34.9704" gradientTransform="matrix(1 0 0 -1 0 202)">
	<stop  offset="0" style="stop-color:#FFFFFF"/>
	<stop  offset="0.288" style="stop-color:#FFFFFF"/>
	<stop  offset="0.6854" style="stop-color:#FFFFFF"/>
	<stop  offset="1" style="stop-color:#FFFFFF"/>
</linearGradient>
<path class="st1" d="M35,134.6v64.8h-7v-30H7v30H0v-64.8h7v29.9h21v-29.9H35z"/>
<linearGradient id="SVGID_3_" gradientUnits="userSpaceOnUse" x1="50.4115" y1="34.9704" x2="57.4215" y2="34.9704" gradientTransform="matrix(1 0 0 -1 0 202)">
	<stop  offset="0" style="stop-color:#FFFFFF"/>
	<stop  offset="0.288" style="stop-color:#FFFFFF"/>
	<stop  offset="0.6854" style="stop-color:#FFFFFF"/>
	<stop  offset="1" style="stop-color:#FFFFFF"/>
</linearGradient>
<path class="st2" d="M50.4,199.4v-64.8h7v64.8H50.4z"/>
<linearGradient id="SVGID_4_" gradientUnits="userSpaceOnUse" x1="72.7915" y1="34.9704" x2="107.1915" y2="34.9704" gradientTransform="matrix(1 0 0 -1 0 202)">
	<stop  offset="0" style="stop-color:#FFFFFF"/>
	<stop  offset="0.288" style="stop-color:#FFFFFF"/>
	<stop  offset="0.6854" style="stop-color:#FFFFFF"/>
	<stop  offset="1" style="stop-color:#FFFFFF"/>
</linearGradient>
<path class="st3" d="M79.8,171.2v28.2h-7v-64.8h15.5c10.4,0,18.9,6.1,18.9,13.4v9.7c0,7.4-8.5,13.4-18.9,13.4h-8.5V171.2z
	 M88.3,166.2c6.6,0,11.9-3.8,11.9-8.4v-9.7c0-4.7-5.3-8.4-11.9-8.4h-8.5v26.6L88.3,166.2L88.3,166.2z"/>
<linearGradient id="SVGID_5_" gradientUnits="userSpaceOnUse" x1="119.0315" y1="34.9704" x2="153.4315" y2="34.9704" gradientTransform="matrix(1 0 0 -1 0 202)">
	<stop  offset="0" style="stop-color:#FFFFFF"/>
	<stop  offset="0.288" style="stop-color:#FFFFFF"/>
	<stop  offset="0.6854" style="stop-color:#FFFFFF"/>
	<stop  offset="1" style="stop-color:#FFFFFF"/>
</linearGradient>
<path class="st4" d="M126,171.2v28.2h-7v-64.8h15.5c10.4,0,18.9,6.1,18.9,13.4v9.7c0,7.4-8.5,13.4-18.9,13.4H126V171.2z
	 M134.5,166.2c6.6,0,11.9-3.8,11.9-8.4v-9.7c0-4.7-5.3-8.4-11.9-8.4H126v26.6L134.5,166.2L134.5,166.2z"/>
<linearGradient id="SVGID_6_" gradientUnits="userSpaceOnUse" x1="164.5915" y1="34.9704" x2="199.6515" y2="34.9704" gradientTransform="matrix(1 0 0 -1 0 202)">
	<stop  offset="0" style="stop-color:#FFFFFF"/>
	<stop  offset="0.288" style="stop-color:#FFFFFF"/>
	<stop  offset="0.6854" style="stop-color:#FFFFFF"/>
	<stop  offset="1" style="stop-color:#FFFFFF"/>
</linearGradient>
<path class="st5" d="M164.6,146.1c0-6.9,7.8-12.5,17.5-12.5s17.5,5.6,17.5,12.5v41.8c0,6.9-7.8,12.5-17.5,12.5s-17.5-5.6-17.5-12.5
	V146.1z M171.6,187.9c0,4.1,4.7,7.5,10.5,7.5s10.5-3.4,10.5-7.5v-41.8c0-4.1-4.7-7.5-10.5-7.5s-10.5,3.4-10.5,7.5V187.9z"/>
</svg>
